# AST/ASF file generated using VICON BodyLanguage
# -----------------------------------------------
:version 1.10
:name VICON
:units
  mass 1.0
  length 0.45
  angle deg
:documentation
   .ast/.asf automatically generated from VICON data using
   VICON BodyBuilder and BodyLanguage model FoxedUp or BRILLIANT.MOD
:root
   order TX TY TZ RX RY RZ
   axis XYZ
   position 0 0 0  
   orientation 0 0 0 
:bonedata
  begin
     id 1 
     name lhipjoint
     direction 0.561145 -0.797705 0.220866 
     length 2.46425 
     axis 0 0 0  XYZ
  end
  begin
     id 2 
     name lfemur
     direction 0.34202 -0.939693 0  
     length 7.95556  
     axis 0 0 20  XYZ
    dof rx ry rz
    limits (-160.0 20.0)
           (-70.0 70.0)
           (-60.0 70.0)
  end
  begin
     id 3 
     name ltibia
     direction 0.34202 -0.939693 0   
     length 7.9832   
     axis 0 0 20   XYZ
    dof rx
    limits (-10.0 170.0)
  end
  begin
     id 4 
     name lfoot
     direction 0.0723927 -0.198897 0.977343   
     length 2.23085   
     axis -90 7.62852e-016 20   XYZ
    dof rx rz
    limits (-45.0 90.0)
           (-70.0 20.0)
  end
  begin
     id 5 
     name ltoes
     direction 1.53826e-011 -4.21988e-011 1   
     length 1.12127   
     axis -90 7.62852e-016 20   XYZ
    dof rx
    limits (-90.0 20.0)
  end
  begin
     id 6 
     name rhipjoint
     direction -0.610499 -0.763299 0.21134   
     length 2.57533  
     axis 0 0 0  XYZ 
  end
  begin
     id 7 
     name rfemur
     direction -0.34202 -0.939693 0   
     length 8.65257   
     axis 0 0 -20   XYZ
    dof rx ry rz
    limits (-160.0 20.0)
           (-70.0 70.0)
           (-70.0 60.0)
  end
  begin
     id 8 
     name rtibia
     direction -0.342021 -0.939692 0   
     length 7.37807   
     axis 0 0 -20   XYZ
    dof rx
    limits (-10.0 170.0)
 end
 begin
     id 9 
     name rfoot
     direction -0.0239304 -0.0543852 0.998233   
     length 1.87018  
     axis -90 -7.62852e-016 -20   XYZ
    dof rx rz
    limits (-45.0 90.0)
           (-20.0 70.0)
  end
  begin
     id 10 
     name rtoes
     direction -1.53584e-011 -4.2242e-011 1   
     length 0.951568   
     axis -90 -7.62852e-016 -20   XYZ
    dof rx
    limits (-90.0 20.0)
  end
  begin
     id 11 
     name lowerback
     direction 0.00322089 0.999033 0.0438587   
     length 2.07568   
     axis 0 0 0   XYZ
    dof rx ry rz
    limits (-20.0 45.0)
           (-30.0 30.0)
           (-30.0 30.0)
  end
  begin
     id 12 
     name upperback
     direction -0.00321932 0.999732 -0.0229403   
     length 2.06253   
     axis 0 0 0   XYZ
    dof rx ry rz
    limits (-20.0 45.0)
           (-30.0 30.0)
           (-30.0 30.0)
  end
  begin
     id 13 
     name thorax
     direction -0.00537537 0.998955 -0.0453918   
     length 2.06975   
     axis 0 0 0   XYZ
    dof rx ry rz
    limits (-20.0 45.0)
           (-30.0 30.0)
           (-30.0 30.0)
  end
  begin
     id 14 
     name lowerneck
     direction -0.00013604 0.994111 0.108363   
     length 1.50836   
     axis 0 0 0   XYZ
    dof rx ry rz
    limits (-20.0 45.0)
           (-30.0 30.0)
           (-30.0 30.0)
  end
  begin
     id 15 
     name upperneck
     direction 0.0397262 0.983859 -0.174482   
     length 1.53037   
     axis 0 0 0   XYZ
    dof rx ry rz
    limits (-20.0 45.0)
           (-30.0 30.0)
           (-30.0 30.0)
  end
  begin
     id 16
     name head
     direction 0.0109991 0.997082 -0.0755378  
     length 1.56928  
     axis 0 0 0   XYZ
    dof rx ry rz
    limits (-20.0 45.0)
           (-30.0 30.0)
           (-30.0 30.0)
  end
  begin
     id 17 
     name lclavicle
     direction 0.964749 0.254 -0.068874  
     length 3.26503  
     axis 0 0 0   XYZ
    dof ry rz
    limits (-20.0 10.0)
           (0.0 20.0)
  end
  begin
     id 18 
     name lhumerus
     direction 1 -4.48941e-011 -2.05079e-027   
     length 5.68236   
     axis 180 -30 -90   XYZ
    dof rx ry rz
    limits (-60.0 90.0)
           (-90.0 90.0)
           (-90.0 90.0)
  end
  begin
     id 19
     name lradius
     direction 1 -4.48956e-011 6.2882e-027   
     length 3.17112   
     axis 180 -30 -90   XYZ
    dof rx
    limits (-10.0 170.0)
  end
  begin
     id 20
     name lwrist
     direction 1 -4.49014e-011 1.73219e-026   
     length 1.58556   
     axis -1.04724e-014 90 90   XYZ
    dof ry
    limits (-180.0 0.0)
 end
  begin
     id 21 
     name lhand
     direction 1 -4.49312e-011 3.46438e-026   
     length 0.632691   
     axis -2.21057e-014 90 90   XYZ
    dof rx rz
    limits (-90.0 90.0)
           (-45.0 45.0)
  end
  begin
     id 22 
     name lfingers
     direction 1 -4.48894e-011 6.92876e-026   
     length 0.510091   
     axis -4.42114e-014 90 90   XYZ
    dof rx
    limits (0.0 90.0)
  end
  begin
     id 23
     name lthumb
     direction 0.707107 -6.34705e-011 0.707107   
     length 0.732392   
     axis -90 45 2.85299e-015   XYZ
    dof rx rz
    limits (-45.0 45.0)
           (-45.0 45.0)
  end
  begin
     id 24 
     name rclavicle
     direction -0.954374 0.280496 -0.102435   
     length 3.25419  
     axis 0 0 0   XYZ 
    dof ry rz
    limits (-10.0 20.0)
           (-20.0 0.0)
  end
  begin
     id 25 
     name rhumerus
     direction -1 -4.48994e-011 -1.07204e-017  
     length 5.8712   
     axis 180 30 90   XYZ
    dof rx ry rz
    limits (-90.0 60.0)
           (-90.0 90.0)
           (-90.0 90.0)
  end
  begin
     id 26 
     name rradius
     direction -1 -4.48972e-011 5.89292e-027   
     length 3.37589   
     axis 180 30 90   XYZ
    dof rx
    limits (-10.0 170.0)
  end
  begin
     id 27 
     name rwrist
     direction -1 -4.48942e-011 1.73219e-026   
     length 1.68794   
     axis -1.04724e-014 -90 -90   XYZ
    dof ry
    limits (-180.0 0.0)
  end
  begin
     id 28
     name rhand
     direction -1 -4.48514e-011 3.46438e-026   
     length 0.603257   
     axis -2.21057e-014 -90 -90   XYZ
    dof rx rz
    limits (-90.0 90.0)
           (-45.0 45.0)
  end
  begin
     id 29
     name rfingers
     direction -1 -4.50028e-011 6.92876e-026   
     length 0.486362   
     axis -4.42114e-014 -90 -90   XYZ
    dof rx
    limits (0.0 90.0)
  end
  begin
     id 30
     name rthumb
     direction -0.707107 -6.34926e-011 0.707107   
     length 0.698321   
     axis -90 -45 -2.85299e-015   XYZ
    dof rx rz
    limits (-45.0 45.0)
           (-45.0 45.0)
  end
:hierarchy
  begin
    root lhipjoint rhipjoint lowerback
    lhipjoint lfemur
    lfemur ltibia
    ltibia lfoot
    lfoot ltoes
    rhipjoint rfemur
    rfemur rtibia
    rtibia rfoot
    rfoot rtoes
    lowerback upperback
    upperback thorax
    thorax lowerneck lclavicle rclavicle
    lowerneck upperneck
    upperneck head
    lclavicle lhumerus
    lhumerus lradius
    lradius lwrist
    lwrist lhand lthumb
    lhand lfingers
    rclavicle rhumerus
    rhumerus rradius
    rradius rwrist
    rwrist rhand rthumb
    rhand rfingers
  end

#!OML:ASF I:\Segmentation\Patient Classification 1\Patient 1\Session 1\Patient1.ASF
:FULLY-SPECIFIED
:DEGREES
2004
root -14.3649 17.9529 0.244095 36.9748 -268.61 -1054.84
lowerback -9.76683 1.05966 -5.75852
upperback 1.36323 2.11805 0.0424489
thorax 6.72501 0.819197 3.61164
lowerneck -15.1135 -5.38748 -6.25518
upperneck 12.5772 -6.77858 5.40252
head 6.71338 -3.11561 2.05173
rclavicle 5.26779e-015 4.37326e-015
rhumerus -45.7355 13.3069 -90.1078
rradius 91.8482
rwrist -65.0951
rhand -26.1641 9.36618
rfingers 7.12502
rthumb 0.38724 -20.6132
lclavicle 5.26779e-015 4.37326e-015
lhumerus -50.5472 -7.10682 88.0456
lradius 94.3587
lwrist 16.5822
lhand -16.915 31.6594
lfingers 7.12502
lthumb 9.3174 61.4335
rfemur -33.7928 3.49706 12.6345
rtibia 41.782
rfoot -7.06343 9.26875
rtoes 43.6471
lfemur -33.1009 -1.99326 -20.3118
ltibia 41.8658
lfoot -20.86 0.111377
ltoes -19.0204
2005
root -14.3297 17.9522 0.260726 33.0672 -268.521 -1058.65
lowerback -9.64484 0.997989 -5.69811
upperback 1.39095 2.01927 0.0670076
thorax 6.69599 0.772908 3.5856
lowerneck -15.1832 -5.35312 -6.20872
upperneck 12.6588 -6.73867 5.38728
head 6.74687 -3.09352 2.04202
rclavicle -2.47984e-014 -1.90833e-014
rhumerus -45.9636 13.2444 -90.2737
rradius 92.1244
rwrist -64.7996
rhand -26.1711 9.29169
rfingers 7.12502
rthumb 0.38048 -20.6877
lclavicle -2.47984e-014 -1.90833e-014
lhumerus -50.5988 -6.95873 88.0073
lradius 94.8577
lwrist 16.2186
lhand -16.691 31.638
lfingers 7.12502
lthumb 9.53354 61.4023
rfemur -33.896 3.26881 12.6358
rtibia 41.5088
rfoot -7.07533 8.82958
rtoes 43.3212
lfemur -32.8697 -2.11721 -20.3053
ltibia 41.8257
lfoot -20.831 0.135464
ltoes -18.4036
2006
root -14.3 17.9507 0.275895 38.0455 -268.718 -1053.79
lowerback -9.72635 1.08211 -5.52753
upperback 1.3724 2.11724 0.0412087
thorax 6.7188 0.827564 3.47895
lowerneck -15.2489 -5.33615 -6.13122
upperneck 12.7078 -6.73522 5.41427
head 6.77192 -3.08403 2.03718
rclavicle 3.18055e-015 -7.95139e-015
rhumerus -46.176 13.0296 -90.4621
rradius 92.4489
rwrist -64.2883
rhand -26.1399 9.36958
rfingers 7.12502
rthumb 0.410662 -20.6098
lclavicle 3.18055e-015 -7.95139e-015
lhumerus -50.6482 -7.05764 88.016
lradius 95.4649
lwrist 16.0391
lhand -16.5906 31.439
lfingers 7.12502
lthumb 9.63035 61.1989
rfemur -34.3196 3.22981 12.6686
rtibia 41.2891
rfoot -6.73746 8.51074
rtoes 43.4009
lfemur -32.846 -2.00391 -20.2567
ltibia 41.805
lfoot -20.9496 0.335297
ltoes -18.4623
2007
root -14.2671 17.9619 0.294136 29.4129 -268.543 -1062.39
lowerback -9.68384 1.00604 -5.50356
upperback 1.41641 2.01247 0.028197
thorax 6.75311 0.775389 3.43581
lowerneck -15.1242 -5.31502 -6.16117
upperneck 12.5716 -6.72326 5.54983
head 6.71228 -3.07123 2.09036
rclavicle -2.41523e-014 7.95139e-016
rhumerus -46.3303 12.7987 -90.551
rradius 92.692
rwrist -63.5163
rhand -26.0753 9.41529
rfingers 7.12502
rthumb 0.473059 -20.5639
lclavicle -2.41523e-014 7.95139e-016
lhumerus -50.5517 -7.17435 88.1014
lradius 95.9476
lwrist 15.916
lhand -16.6669 30.7893
lfingers 7.12502
lthumb 9.55674 60.5525
rfemur -34.3799 3.23752 12.5411
rtibia 41.0763
rfoot -6.89422 8.33947
rtoes 43.5962
lfemur -32.6502 -2.07166 -20.3113
ltibia 41.7173
lfoot -20.8718 0.306654
ltoes -18.9942
2008
root -14.2316 17.9667 0.315501 21.4536 -268.335 -1070.23
lowerback -9.57367 0.883388 -5.56942
upperback 1.49237 1.85047 0.0511906
thorax 6.78481 0.690333 3.47141
lowerneck -15.0296 -5.25852 -6.24197
upperneck 12.3915 -6.65184 5.70535
head 6.6425 -3.03067 2.16418
rclavicle 4.96962e-017 4.77083e-015
rhumerus -46.5441 12.5638 -90.6146
rradius 92.9805
rwrist -62.2925
rhand -26.0087 9.55631
rfingers 7.12502
rthumb 0.537339 -20.4228
lclavicle 4.96962e-017 4.77083e-015
lhumerus -50.3556 -7.14607 88.1223
lradius 96.3594
lwrist 15.4822
lhand -16.5979 30.6092
lfingers 7.12502
lthumb 9.62331 60.3694
rfemur -34.32 3.36592 12.3523
rtibia 40.9091
rfoot -7.21053 8.25071
rtoes 43.7234
lfemur -32.414 -2.24594 -20.3849
ltibia 41.652
lfoot -20.7672 0.367656
ltoes -19.8673
2009
root -14.1947 17.9645 0.335953 17.4967 -268.359 -1074.11
lowerback -9.4461 0.833633 -5.55959
upperback 1.50736 1.77516 0.0497131
thorax 6.7357 0.655173 3.44978
lowerneck -14.9732 -5.18149 -6.15367
upperneck 12.2841 -6.55848 5.66441
head 6.58821 -2.98682 2.1488
rclavicle 5.06901e-015 -1.66979e-014
rhumerus -46.8724 12.3417 -90.7701
rradius 93.2136
rwrist -60.4755
rhand -25.9231 9.5839
rfingers 7.12502
rthumb 0.619992 -20.3949
lclavicle 5.06901e-015 -1.66979e-014
lhumerus -50.2922 -7.14431 88.0985
lradius 96.878
lwrist 14.9931
lhand -16.4447 30.723
lfingers 7.12502
lthumb 9.77117 60.4763
rfemur -34.3406 3.56625 12.1932
rtibia 40.7439
rfoot -7.3398 8.19954
rtoes 43.9126
lfemur -32.1991 -2.2989 -20.4544
ltibia 41.5798
lfoot -20.7596 0.599932
ltoes -20.7166
2010
root -14.1589 17.9578 0.356937 18.3053 -268.548 -1073.21
lowerback -9.31965 0.83252 -5.50131
upperback 1.51158 1.75311 0.124682
thorax 6.66913 0.64691 3.48935
lowerneck -14.9104 -5.10006 -5.97517
upperneck 12.1588 -6.44732 5.42646
head 6.51623 -2.94704 2.05764
rclavicle -5.86415e-015 -6.16232e-015
rhumerus -47.0796 12.3362 -90.856
rradius 93.2351
rwrist -58.2331
rhand -25.896 9.45614
rfingers 7.12502
rthumb 0.646218 -20.5226
lclavicle -5.86415e-015 -6.16232e-015
lhumerus -50.2187 -7.04442 88.1676
lradius 97.3734
lwrist 14.5396
lhand -16.3228 30.3949
lfingers 7.12502
lthumb 9.88875 60.1427
rfemur -34.4221 3.89074 12.1452
rtibia 40.6421
rfoot -7.32794 8.11957
rtoes 44.1507
lfemur -31.9643 -2.18408 -20.4114
ltibia 41.548
lfoot -20.8563 0.749323
ltoes -21.099
